<?xml version="1.0" encoding="utf-8"?>
<!DOCTYPE svg PUBLIC "-//W3C//DTD SVG 1.1//EN" "http://www.w3.org/Graphics/SVG/1.1/DTD/svg11.dtd">
<svg class="gear" viewBox="0 0 128 128" xmlns="http://www.w3.org/2000/svg" fill-rule="evenodd" clip-rule="evenodd" stroke-linejoin="round" stroke-miterlimit="1.414"><g fill-rule="nonzero"><path d="M16.55 93.334l.001-.012a55.8 55.8 0 0 1-6.856-16.551 20.68 20.68 0 0 0-9.148-4.447 64.05 64.05 0 0 1 0-16.702 20.67 20.67 0 0 0 9.148-4.448 55.8 55.8 0 0 1 6.856-16.551 20.689 20.689 0 0 0-3.324-9.613 63.985 63.985 0 0 1 11.81-11.81 20.676 20.676 0 0 0 9.613 3.323l.062-.037a54.899 54.899 0 0 0-9.941 31.585c0 24.918 16.553 46 39.253 52.841a55.106 55.106 0 0 1-15.926 2.337 54.895 54.895 0 0 1-31.548-9.915z" fill="url(#a)"></path><path d="M34.639 16.523h.011a55.82 55.82 0 0 1 16.552-6.855A20.68 20.68 0 0 0 55.649.52a63.963 63.963 0 0 1 16.702 0 20.68 20.68 0 0 0 4.447 9.148 55.82 55.82 0 0 1 16.552 6.855 20.676 20.676 0 0 0 9.613-3.323 63.985 63.985 0 0 1 11.81 11.81 20.68 20.68 0 0 0-3.323 9.601 54.903 54.903 0 0 0-31.549-9.915c-24.926 0-46.014 16.565-52.847 39.277a55.087 55.087 0 0 1-2.331-15.902 54.896 54.896 0 0 1 9.916-31.548z" fill="url(#b)"></path><path d="M93.361 111.423a54.896 54.896 0 0 0 9.915-31.549c0-24.926-16.564-46.014-39.276-52.848a55.12 55.12 0 0 1 15.901-2.33 54.903 54.903 0 0 1 31.549 9.915l-.001.012a55.8 55.8 0 0 1 6.856 16.551 20.67 20.67 0 0 0 9.148 4.448 64.05 64.05 0 0 1 0 16.702 20.68 20.68 0 0 0-9.148 4.447 55.8 55.8 0 0 1-6.856 16.551 20.689 20.689 0 0 0 3.324 9.614 64.046 64.046 0 0 1-11.81 11.81 20.672 20.672 0 0 0-9.602-3.323z" fill="url(#c)"></path><path d="M16.547 93.365a54.897 54.897 0 0 0 31.504 9.884c24.955 0 46.063-16.603 52.872-39.355a55.12 55.12 0 0 1 2.353 15.98 54.896 54.896 0 0 1-9.915 31.549l-.011-.001a55.795 55.795 0 0 1-16.552 6.856 20.68 20.68 0 0 0-4.447 9.148 64.05 64.05 0 0 1-16.702 0 20.68 20.68 0 0 0-4.447-9.148 55.795 55.795 0 0 1-16.552-6.856 20.667 20.667 0 0 0-9.613 3.324 64.046 64.046 0 0 1-11.81-11.81 20.663 20.663 0 0 0 3.32-9.571z" fill="url(#d)"></path></g><defs><linearGradient id="a" x2="1" gradientUnits="userSpaceOnUse" gradientTransform="scale(-75.5727 75.5727) rotate(-54.493 .884 1.48)"><stop offset="0%" stop-color="#a32c27"></stop><stop offset="100%" stop-color="#d6271f"></stop></linearGradient><linearGradient id="b" x2="1" gradientUnits="userSpaceOnUse" gradientTransform="scale(75.2718 -75.2718) rotate(34.566 1.492 .155)"><stop offset="0%" stop-color="#a32c27"></stop><stop offset="100%" stop-color="#d6271f"></stop></linearGradient><linearGradient id="c" x2="1" gradientUnits="userSpaceOnUse" gradientTransform="scale(75.8279 -75.8279) rotate(-54.275 .085 -1.01)"><stop offset="0%" stop-color="#a32c27"></stop><stop offset="100%" stop-color="#d6271f"></stop></linearGradient><linearGradient id="d" x2="1" gradientUnits="userSpaceOnUse" gradientTransform="scale(-75.7471 75.7471) rotate(35.858 -1.988 -1.64)"><stop offset="0%" stop-color="#a32c27"></stop><stop offset="100%" stop-color="#d6271f"></stop></linearGradient></defs></svg>
<svg viewBox="0 0 759 128" class="promptworks">
<path d="M755.648 32.267l-1.199 13.465c-5.685-1.953-11.013-2.933-15.985-2.933-2.844 0-5.308.6-7.393 1.8-2.087 1.2-3.131 3.134-3.131 5.801 0 1.955 1.067 3.533 3.197 4.733 2.131 1.2 4.705 2.222 7.726 3.066a77.886 77.886 0 0 1 9.126 3.201c3.062 1.288 5.661 3.422 7.793 6.399 2.129 2.979 3.196 6.78 3.196 11.401 0 7.466-2.777 13.066-8.325 16.799-5.552 3.734-12.368 5.601-20.447 5.601-6.129 0-12.878-.979-20.248-2.934L711.023 84c6.039 3.023 11.9 4.534 17.584 4.534 2.93 0 5.616-.644 8.059-1.934 2.441-1.287 3.662-3.444 3.662-6.467 0-2.044-.777-3.734-2.331-5.066-1.555-1.334-3.462-2.288-5.727-2.868-2.265-.577-4.752-1.354-7.459-2.333-2.71-.976-5.196-2.044-7.46-3.2-2.265-1.154-4.174-3.067-5.728-5.733-1.555-2.667-2.331-5.953-2.331-9.867 0-7.021 2.597-12.333 7.793-15.933 5.194-3.6 11.566-5.4 19.114-5.4 5.061 0 11.543.847 19.449 2.534z"></path>
<path d="M646.299 0h18.649v58.799h.265l13.61-17.647h-4.709v-9.796h12.263l.018-.022h21.046L681.893 62l28.745 38h-22.644l-22.781-33.334h-.265V100h-18.649V0zm-44.988 31.356v-.022h15.851v15.599h.373c.62-3.733 2.802-7.533 6.54-11.399 3.737-3.867 8.051-5.801 12.936-5.801 2.398 0 4.216.18 5.46.533v18.001c-1.687-.978-4.351-1.467-7.992-1.467-2.309 0-4.328.422-6.06 1.266-1.733.846-3.11 2.133-4.131 3.868-1.02 1.733-1.844 3.422-2.463 5.065-.622 1.647-1.067 3.735-1.333 6.267-.266 2.534-.421 4.514-.465 5.933a182.24 182.24 0 0 0-.067 5.602V100h-18.649V41.152h-6.65v-9.796h6.65zm-76.33 34.76c0-11.105 3.373-19.945 10.124-26.521 6.747-6.574 15.318-9.862 25.708-9.862 10.39 0 18.983 3.288 25.777 9.862 6.793 6.576 10.189 15.417 10.189 26.521 0 10.227-3.219 18.699-9.657 25.413-6.44 6.714-15.208 10.071-26.309 10.071-11.012 0-19.737-3.357-26.176-10.071-6.438-6.714-9.656-15.186-9.656-25.413zm18.649-2.055c0 6.425 1.309 11.843 3.929 16.255 2.618 4.413 7.037 6.617 13.254 6.617 3.285 0 6.106-.662 8.459-1.992 2.352-1.326 4.151-3.125 5.395-5.395a26.158 26.158 0 0 0 2.664-7.196c.533-2.527.799-5.289.799-8.289 0-5.484-1.511-10.131-4.529-13.943-3.021-3.811-7.282-5.718-12.789-5.718-5.506 0-9.746 1.929-12.721 5.782-2.975 3.855-4.461 8.483-4.461 13.879zM416.688 31.356l-.008-.022h18.649l15.506 50.799.273.017 11.128-40.998h-5.565v-9.796h8.224l.006-.022h20.311l15.044 50.896.726-.062 11.408-41.016h-5.834v-9.796h8.558l.006-.022h15.605l-19.601 68.665h-21.047L475.161 47.6l-.668-.113-14.686 52.512H439.63l-19.669-58.847h-8.097v-9.796h4.824zm-8.857.643v10.134h-17.184v37.199c0 3.824.998 6.801 2.996 8.933 1.999 2.134 4.507 3.202 7.527 3.202 3.196 0 6.039-.801 8.524-2.4v10.666c-4.351 1.244-7.904 1.867-10.656 1.867-6.728 0-12.03-1.622-15.904-4.867-3.872-3.244-5.809-8.199-5.809-14.866V42.132h-14.519V31.999h14.519V16.266l13.322-3.999v19.732h17.184zm-107.115.028v-.028h12.785V41.6h.25c1.949-3.021 4.892-5.644 8.833-7.866 3.943-2.222 8.659-3.334 14.15-3.334 9.395 0 16.618 3.29 21.67 9.867 5.055 6.579 7.582 14.755 7.582 24.532 0 10.224-2.46 18.913-7.38 26.068-4.921 7.156-12.166 10.733-21.739 10.733-10.532 0-18.054-3.644-22.567-10.934h-.266V128h-13.318V41.822h-8.205v-9.795h8.205zm51.948 33.706c.178-6.844-1.304-12.754-4.447-17.733-3.144-4.977-7.856-7.467-14.136-7.467-6.374 0-11.306 2.533-14.804 7.599-3.497 5.067-5.243 11.067-5.243 18.001 0 6.489 1.703 12.333 5.11 17.534 3.407 5.199 8.343 7.8 14.803 7.8 6.107 0 10.796-2.734 14.072-8.201 3.274-5.466 4.823-11.311 4.645-17.533zM193.589 32.027v-.028h12.52v9.867h.235c4.604-7.643 11.777-11.466 21.518-11.466 4.309 0 8.274 1.112 11.896 3.334 3.621 2.222 6.302 5.511 8.044 9.867 2.135-4.444 5.251-7.755 9.348-9.934 4.093-2.178 8.011-3.267 11.75-3.267 8.431 0 14.591 2.333 18.486 7 3.893 4.667 5.843 11 5.843 18.999V100h-13.322V59.466c0-12.62-4.023-18.933-12.067-18.933-5.925 0-10.368 2.446-13.33 7.333-2.962 4.89-4.441 10.846-4.441 17.866v34.267h-13.322V59.466c0-12.62-4.023-18.933-12.067-18.933-5.924 0-10.367 2.446-13.329 7.333-2.963 4.89-4.441 10.846-4.441 17.866v34.267h-13.321V41.822h-8.684v-9.795h8.684zm-77.793 33.972c0-10.4 3.198-18.932 9.591-25.6 6.395-6.665 14.74-9.999 25.044-9.999 10.21 0 18.516 3.334 24.909 9.999 6.395 6.668 9.591 15.2 9.591 25.6 0 9.957-3.242 18.38-9.723 25.267-6.485 6.89-14.743 10.334-24.777 10.334-10.038 0-18.316-3.445-24.844-10.334-6.527-6.887-9.791-15.31-9.791-25.267zm13.322 0c0 6.757 1.818 12.691 5.46 17.8 3.641 5.114 8.925 7.668 15.853 7.668 6.837 0 12.075-2.554 15.718-7.668 3.641-5.109 5.462-11.043 5.462-17.8 0-6.844-1.933-12.8-5.795-17.866-3.863-5.067-8.992-7.599-15.385-7.599-6.395 0-11.545 2.532-15.452 7.599-3.909 5.066-5.861 11.022-5.861 17.866zM78.719 32.027v-.028h12.522v11.317h.233c1.708-3.783 4.207-6.882 7.493-9.296 3.285-2.412 6.704-3.62 10.258-3.62 2.398 0 5.149.331 8.259.993v11.923c-1.956-.787-4.263-1.183-6.928-1.183-5.594 0-10.079 2.456-13.454 7.364-3.376 4.912-5.062 11.574-5.062 19.99V100H78.719V41.822h-6.423v-9.795h6.423zm-71.738 0v-.028h12.788V41.6h.249c1.949-3.021 4.892-5.644 8.834-7.866 3.942-2.222 8.658-3.334 14.149-3.334 9.395 0 16.618 3.29 21.671 9.867 5.054 6.579 7.581 14.755 7.581 24.532 0 10.224-2.46 18.913-7.381 26.068-4.92 7.156-12.165 10.733-21.738 10.733-10.532 0-18.054-3.644-22.567-10.934h-.266V128H6.981V41.822H0v-9.795h6.981zm51.95 33.706c.178-6.844-1.304-12.754-4.447-17.733-3.143-4.977-7.856-7.467-14.136-7.467-6.374 0-11.306 2.533-14.804 7.599-3.497 5.067-5.243 11.067-5.243 18.001 0 6.489 1.702 12.333 5.11 17.534 3.407 5.199 8.343 7.8 14.803 7.8 6.107 0 10.796-2.734 14.072-8.201 3.274-5.466 4.823-11.311 4.645-17.533z"></path>
</svg>
