<?xml version="1.0" encoding="utf-8"?>
<!DOCTYPE svg PUBLIC "-//W3C//DTD SVG 1.1//EN" "http://www.w3.org/Graphics/SVG/1.1/DTD/svg11.dtd">
<svg class="gear" viewBox="0 0 128 128" xmlns="http://www.w3.org/2000/svg" fill-rule="evenodd" clip-rule="evenodd" stroke-linejoin="round" stroke-miterlimit="1.414"><g fill-rule="nonzero"><path d="M16.55 93.334l.001-.012a55.8 55.8 0 0 1-6.856-16.551 20.68 20.68 0 0 0-9.148-4.447 64.05 64.05 0 0 1 0-16.702 20.67 20.67 0 0 0 9.148-4.448 55.8 55.8 0 0 1 6.856-16.551 20.689 20.689 0 0 0-3.324-9.613 63.985 63.985 0 0 1 11.81-11.81 20.676 20.676 0 0 0 9.613 3.323l.062-.037a54.899 54.899 0 0 0-9.941 31.585c0 24.918 16.553 46 39.253 52.841a55.106 55.106 0 0 1-15.926 2.337 54.895 54.895 0 0 1-31.548-9.915z" fill="url(#a)"></path><path d="M34.639 16.523h.011a55.82 55.82 0 0 1 16.552-6.855A20.68 20.68 0 0 0 55.649.52a63.963 63.963 0 0 1 16.702 0 20.68 20.68 0 0 0 4.447 9.148 55.82 55.82 0 0 1 16.552 6.855 20.676 20.676 0 0 0 9.613-3.323 63.985 63.985 0 0 1 11.81 11.81 20.68 20.68 0 0 0-3.323 9.601 54.903 54.903 0 0 0-31.549-9.915c-24.926 0-46.014 16.565-52.847 39.277a55.087 55.087 0 0 1-2.331-15.902 54.896 54.896 0 0 1 9.916-31.548z" fill="url(#b)"></path><path d="M93.361 111.423a54.896 54.896 0 0 0 9.915-31.549c0-24.926-16.564-46.014-39.276-52.848a55.12 55.12 0 0 1 15.901-2.33 54.903 54.903 0 0 1 31.549 9.915l-.001.012a55.8 55.8 0 0 1 6.856 16.551 20.67 20.67 0 0 0 9.148 4.448 64.05 64.05 0 0 1 0 16.702 20.68 20.68 0 0 0-9.148 4.447 55.8 55.8 0 0 1-6.856 16.551 20.689 20.689 0 0 0 3.324 9.614 64.046 64.046 0 0 1-11.81 11.81 20.672 20.672 0 0 0-9.602-3.323z" fill="url(#c)"></path><path d="M16.547 93.365a54.897 54.897 0 0 0 31.504 9.884c24.955 0 46.063-16.603 52.872-39.355a55.12 55.12 0 0 1 2.353 15.98 54.896 54.896 0 0 1-9.915 31.549l-.011-.001a55.795 55.795 0 0 1-16.552 6.856 20.68 20.68 0 0 0-4.447 9.148 64.05 64.05 0 0 1-16.702 0 20.68 20.68 0 0 0-4.447-9.148 55.795 55.795 0 0 1-16.552-6.856 20.667 20.667 0 0 0-9.613 3.324 64.046 64.046 0 0 1-11.81-11.81 20.663 20.663 0 0 0 3.32-9.571z" fill="url(#d)"></path></g><defs><linearGradient id="a" x2="1" gradientUnits="userSpaceOnUse" gradientTransform="scale(-75.5727 75.5727) rotate(-54.493 .884 1.48)"><stop offset="0%" stop-color="#a32c27"></stop><stop offset="100%" stop-color="#d6271f"></stop></linearGradient><linearGradient id="b" x2="1" gradientUnits="userSpaceOnUse" gradientTransform="scale(75.2718 -75.2718) rotate(34.566 1.492 .155)"><stop offset="0%" stop-color="#a32c27"></stop><stop offset="100%" stop-color="#d6271f"></stop></linearGradient><linearGradient id="c" x2="1" gradientUnits="userSpaceOnUse" gradientTransform="scale(75.8279 -75.8279) rotate(-54.275 .085 -1.01)"><stop offset="0%" stop-color="#a32c27"></stop><stop offset="100%" stop-color="#d6271f"></stop></linearGradient><linearGradient id="d" x2="1" gradientUnits="userSpaceOnUse" gradientTransform="scale(-75.7471 75.7471) rotate(35.858 -1.988 -1.64)"><stop offset="0%" stop-color="#a32c27"></stop><stop offset="100%" stop-color="#d6271f"></stop></linearGradient></defs></svg>